<svg width="23" height="24" viewBox="0 0 23 24" fill="none" xmlns="http://www.w3.org/2000/svg">
<path d="M17.4814 11.3964C17.4814 12.5212 17.1749 13.5742 16.6442 14.4791L20.4648 18.2998C21.9258 16.3842 22.7948 13.9907 22.7948 11.3964C22.7948 8.62025 21.8011 6.07457 20.1519 4.09766L16.3672 7.88234C17.0692 8.87398 17.4836 10.0876 17.4836 11.3943L17.4814 11.3964Z" fill="#4AA8DE"/>
<path d="M14.4791 16.6442C13.5741 17.177 12.5212 17.4815 11.3964 17.4815C8.03665 17.4815 5.31125 14.7582 5.31125 11.3964C5.31125 8.03453 8.03454 5.31125 11.3964 5.31125C12.3351 5.31125 13.2232 5.5248 14.016 5.90327L17.8895 2.02978C16.05 0.750595 13.8109 0 11.3964 0C5.10193 0 0 5.10193 0 11.3964C0 17.6908 5.10193 22.7927 11.3964 22.7927C13.9928 22.7927 16.3841 21.9237 18.2997 20.4627L14.4791 16.6421V16.6442Z" fill="#4AA8DE"/>
<path d="M15.7347 24.0002L11.9141 20.2303L14.4809 16.6465L18.2888 20.4544L15.7347 24.0002Z" fill="#ED7A24"/>
</svg>
