<?xml version="1.0" encoding="UTF-8"?>
<svg id="Layer_1" xmlns="http://www.w3.org/2000/svg" xmlns:xlink="http://www.w3.org/1999/xlink" version="1.1" viewBox="0 0 96 96">
  <!-- Generator: Adobe Illustrator 29.8.1, SVG Export Plug-In . SVG Version: 2.1.1 Build 2)  -->
  <defs>
    <style>
      .st0 {
        fill: none;
      }

      .st1 {
        fill-rule: evenodd;
      }

      .st2 {
        fill: #fff;
      }

      .st3 {
        clip-path: url(#clippath);
      }
    </style>
    <clipPath id="clippath">
      <rect class="st0" x="13" y="9.4" width="70" height="70"/>
    </clipPath>
  </defs>
  <path class="st2" d="M48,0h0c26.51,0,48,21.49,48,48h0c0,26.51-21.49,48-48,48h0C21.49,96,0,74.51,0,48h0C0,21.49,21.49,0,48,0Z"/>
  <g class="st3">
    <path class="st1" d="M47.98,13.98c-4.42,0-8.01,3.58-8.01,8.01,0,1.77.58,3.4,1.54,4.73l-.09.15-17.44,31.4c-.93-.37-1.93-.58-2.99-.58-4.42,0-8.01,3.58-8.01,8.01s3.58,8.01,8.01,8.01,8.01-3.58,8.01-8.01c0-1.86-.64-3.57-1.7-4.93,6.85-1.61,13.88-2.36,20.91-2.22,6.89-.07,13.74.69,20.44,2.24-1.05,1.36-1.68,3.06-1.68,4.9,0,4.42,3.58,8.01,8.01,8.01s8.01-3.58,8.01-8.01-3.58-8.01-8.01-8.01c-1.1,0-2.14.22-3.09.62l-17.47-31.47-.04-.07c1-1.34,1.59-3,1.59-4.79,0-2.12-.84-4.16-2.35-5.66s-3.54-2.35-5.66-2.35v.02ZM51.79,29.03c-1.13.62-2.43.96-3.81.96s-2.72-.36-3.86-.99h0l-15.59,28.02c6.48-1.35,13.08-1.98,19.69-1.86,6.42-.05,12.84.58,19.13,1.88l-15.56-28h0ZM52.7,21.99c0,1.91-1.15,3.63-2.91,4.36-1.76.73-3.8.33-5.15-1.02s-1.75-3.39-1.02-5.15,2.45-2.91,4.36-2.91c2.6,0,4.71,2.12,4.73,4.73h-.01ZM20.99,70.39c2.6,0,4.73-2.09,4.75-4.69l-.03-.03c0-2.59-2.1-4.7-4.69-4.73-2.6,0-4.71,2.11-4.73,4.71,0,2.6,2.1,4.72,4.7,4.74ZM76.78,70.06c1.77-.73,2.92-2.45,2.92-4.36v-.03c0-2.59-2.11-4.69-4.7-4.69-1.91,0-3.63,1.14-4.38,2.9-.73,1.76-.33,3.8,1.02,5.15,1.35,1.35,3.39,1.76,5.15,1.03h-.01Z"/>
  </g>
</svg>