<svg xmlns="http://www.w3.org/2000/svg" viewBox="0 0 312.82 383.55">
  <path class="cls-1" fill="rgb(86,154,255)" d="M0,0h45.92v304.62H0V0Z"></path>
  <path class="cls-2" fill="rgb(86,154,255)"
    d="M65.47,0h41.14c44.78,23.35,89.57,46.7,134.35,70.05,23.9,12.44,47.82,24.89,71.72,37.33-.03,18.08-.07,36.17-.1,54.26-82.36-39.55-164.75-79.12-247.11-118.67V0Z"></path>
  <path class="cls-3" fill="rgb(86,154,255)"
    d="M312.48,173.23c.64.77.2,10.43.2,12.31-.03,12.68-.07,25.37-.1,38.05-57.15,25.95-114.33,51.9-171.48,77.85.03-18.15.07-36.31.1-54.46,57.09-24.58,114.2-49.17,171.29-73.74Z"></path>
  <path class="cls-4" fill="rgb(21,93,252)"
    d="M122.14,304.62h-56.67V69.74c18.01,8.58,36.02,17.16,54.03,25.74,30.81,14.29,61.63,28.58,92.43,42.87,21.53,10.02,43.06,20.04,64.59,30.05v.1h-.2c-45.07,18.12-90.16,36.24-135.23,54.36.03-16.14.07-32.28.1-48.41,9.9-2.87,19.8-5.74,29.7-8.62-16.25-8.68-32.51-17.37-48.76-26.05v164.82Z"></path>
  <path class="cls-i1" fill="rgb(43,127,255)" d="M0,323.7h18.17v59.69H0v-59.69Z"></path>
  <path class="cls-p2" fill="rgb(43,127,255)" d="M120.67,323.7h18.17v59.69h-18.17v-59.69Z"></path>
  <path class="cls-i3" fill="rgb(43,127,255)"
    d="M100.54,336.01c-5.9-15.34-37.85-12.41-59.02-12.31-.03,19.9-.07,39.8-.1,59.69h17.78v-22.87c15.75.02,31.8.42,38.69-8.82,2.58-3.47,4.88-9.87,2.64-15.69ZM82.37,343.6c-1.51,8.7-13.74,6.97-23.16,6.87v-16.72c9.11-.06,25-.77,23.16,9.85Z"></path>
  <path class="cls-p4" fill="rgb(43,127,255)"
    d="M221.22,336.01c-5.9-15.34-37.84-12.41-59.02-12.31v59.69h17.69v-22.87c15.8.02,31.73.4,38.69-8.82,2.6-3.45,4.87-9.88,2.64-15.69ZM203.04,343.7c-1.57,8.58-13.79,6.87-23.16,6.77v-16.72c9.11-.06,25.12-.78,23.16,9.95Z"></path>
  <path class="cls-d5" fill="rgb(43,127,255)"
    d="M312.38,349.95c-1.09-6.54-2.82-10.25-5.96-14.36-11.03-14.44-39.84-11.99-64.59-11.9v59.69c28.07.01,59.81,3,68.4-17.44,1.35-3.22,1.81-6.59,2.44-10.77.27-1.74-.06-3.81-.29-5.23ZM293.62,355.49c-.39,2.67-.53,5.06-1.37,7.18-4.42,11.16-17.71,10.81-32.73,10.67v-39.59c16.22-.04,28.78-.67,33.03,12.1.78,2.35,1.57,6.22,1.07,9.64Z"></path>
</svg>